<svg width="392" height="64" viewBox="0 0 392 64" fill="none" xmlns="http://www.w3.org/2000/svg">
<g clip-path="url(#clip0_50_161)">
<path d="M59.6051 13.9663C59.9933 13.5514 60.6591 13.5162 61.0925 13.8877C62.3838 14.9946 64.0505 15.6044 65.7854 15.6044C66.3671 15.6044 66.8387 16.056 66.8387 16.613C66.8387 17.17 66.3671 17.6216 65.7854 17.6216C63.5311 17.6216 61.3654 16.8292 59.6873 15.3905C59.2538 15.019 59.2172 14.3813 59.6051 13.9663ZM1.05334 17.6216C4.55912 17.6216 7.61057 15.7226 9.14479 12.9426C10.679 15.7226 13.7305 17.6216 17.2362 17.6216C20.742 17.6216 23.7936 15.7226 25.3278 12.9426C26.8621 15.7226 29.9135 17.6216 33.4193 17.6216C36.9251 17.6216 39.9765 15.7226 41.5107 12.9426C43.045 15.7226 46.0964 17.6216 49.6023 17.6216C54.6449 17.6216 58.7471 13.6935 58.7471 8.86517C58.7471 8.30815 58.2755 7.85657 57.6938 7.85657C57.1121 7.85657 56.6404 8.30815 56.6404 8.86517C56.6404 12.5813 53.4831 15.6044 49.6023 15.6044C45.7214 15.6044 42.5641 12.5813 42.5641 8.86517C42.5641 8.30815 42.0925 7.85657 41.5107 7.85657C40.929 7.85657 40.4574 8.30815 40.4574 8.86517C40.4574 12.5813 37.3002 15.6044 33.4193 15.6044C29.5384 15.6044 26.3812 12.5813 26.3812 8.86517C26.3812 8.30815 25.9096 7.85657 25.3278 7.85657C24.7461 7.85657 24.2745 8.30815 24.2745 8.86517C24.2745 12.5813 21.1172 15.6044 17.2362 15.6044C13.3553 15.6044 10.1981 12.5813 10.1981 8.86517C10.1981 8.30815 9.72651 7.85657 9.14479 7.85657C8.56307 7.85657 8.09145 8.30815 8.09145 8.86517C8.09145 12.5813 4.93411 15.6044 1.05334 15.6044C0.471614 15.6044 0 16.056 0 16.613C0 17.17 0.471614 17.6216 1.05334 17.6216ZM65.7854 34.8653C61.9046 34.8653 58.7473 31.842 58.7473 28.1261C58.7473 27.5691 58.2756 27.1175 57.6939 27.1175C57.1122 27.1175 56.6406 27.5691 56.6406 28.1261C56.6406 31.842 53.4832 34.8653 49.6025 34.8653C45.7216 34.8653 42.5642 31.842 42.5642 28.1261C42.5642 27.5691 42.0926 27.1175 41.5109 27.1175C40.9291 27.1175 40.4575 27.5691 40.4575 28.1261C40.4575 31.842 37.3002 34.8653 33.4194 34.8653C29.5386 34.8653 26.3813 31.842 26.3813 28.1261C26.3813 27.5691 25.9097 27.1175 25.328 27.1175C24.7462 27.1175 24.2746 27.5691 24.2746 28.1261C24.2746 31.842 21.1173 34.8653 17.2364 34.8653C13.3556 34.8653 10.1983 31.842 10.1983 28.1261C10.1983 27.5691 9.72665 27.1175 9.14493 27.1175C8.56321 27.1175 8.09159 27.5691 8.09159 28.1261C8.09159 31.842 4.93425 34.8653 1.05348 34.8653C0.471754 34.8653 0.000140445 35.3169 0.000140445 35.8739C0.000140445 36.4309 0.471754 36.8825 1.05348 36.8825C4.55926 36.8825 7.61071 34.9835 9.14493 32.2035C10.6791 34.9835 13.7306 36.8825 17.2364 36.8825C20.7422 36.8825 23.7938 34.9835 25.328 32.2035C26.8622 34.9835 29.9136 36.8825 33.4194 36.8825C36.9252 36.8825 39.9767 34.9835 41.5109 32.2035C43.0451 34.9835 46.0965 36.8825 49.6025 36.8825C53.1083 36.8825 56.1597 34.9835 57.6939 32.2035C59.2281 34.9835 62.2796 36.8825 65.7854 36.8825C66.3671 36.8825 66.8387 36.4309 66.8387 35.8739C66.8387 35.3169 66.3671 34.8653 65.7854 34.8653ZM65.7854 54.1263C61.9046 54.1263 58.7473 51.1031 58.7473 47.3871C58.7473 46.8301 58.2756 46.3785 57.6939 46.3785C57.1122 46.3785 56.6406 46.8301 56.6406 47.3871C56.6406 51.1031 53.4832 54.1263 49.6025 54.1263C45.7216 54.1263 42.5642 51.1031 42.5642 47.3871C42.5642 46.8301 42.0926 46.3785 41.5109 46.3785C40.9291 46.3785 40.4575 46.8301 40.4575 47.3871C40.4575 51.1031 37.3002 54.1263 33.4194 54.1263C29.5386 54.1263 26.3813 51.1031 26.3813 47.3871C26.3813 46.8301 25.9097 46.3785 25.328 46.3785C24.7462 46.3785 24.2746 46.8301 24.2746 47.3871C24.2746 51.1031 21.1173 54.1263 17.2364 54.1263C13.3556 54.1263 10.1983 51.1031 10.1983 47.3871C10.1983 46.8301 9.72665 46.3785 9.14493 46.3785C8.56321 46.3785 8.09159 46.8301 8.09159 47.3871C8.09159 51.1031 4.93425 54.1263 1.05348 54.1263C0.471754 54.1263 0.000140445 54.5779 0.000140445 55.1349C0.000140445 55.6919 0.471754 56.1435 1.05348 56.1435C4.55926 56.1435 7.61071 54.2445 9.14493 51.4646C10.6791 54.2445 13.7306 56.1435 17.2364 56.1435C20.7422 56.1435 23.7938 54.2445 25.328 51.4646C26.8622 54.2445 29.9136 56.1435 33.4194 56.1435C36.9252 56.1435 39.9767 54.2445 41.5109 51.4646C43.0451 54.2445 46.0965 56.1435 49.6025 56.1435C53.1083 56.1435 56.1597 54.2445 57.6939 51.4646C59.2281 54.2445 62.2796 56.1435 65.7854 56.1435C66.3671 56.1435 66.8387 55.6919 66.8387 55.1349C66.8387 54.5779 66.3671 54.1263 65.7854 54.1263Z" fill="#81B8B2"/>
</g>
<g clip-path="url(#clip1_50_161)">
<path d="M124.637 13.9663C125.026 13.5514 125.691 13.5162 126.125 13.8877C127.416 14.9946 129.083 15.6044 130.818 15.6044C131.399 15.6044 131.871 16.056 131.871 16.613C131.871 17.17 131.399 17.6216 130.818 17.6216C128.563 17.6216 126.398 16.8292 124.719 15.3905C124.286 15.019 124.249 14.3813 124.637 13.9663ZM66.0856 17.6216C69.5913 17.6216 72.6428 15.7226 74.177 12.9426C75.7112 15.7226 78.7627 17.6216 82.2685 17.6216C85.7743 17.6216 88.8258 15.7226 90.3601 12.9426C91.8943 15.7226 94.9457 17.6216 98.4515 17.6216C101.957 17.6216 105.009 15.7226 106.543 12.9426C108.077 15.7226 111.129 17.6216 114.635 17.6216C119.677 17.6216 123.779 13.6935 123.779 8.86517C123.779 8.30815 123.308 7.85657 122.726 7.85657C122.144 7.85657 121.673 8.30815 121.673 8.86517C121.673 12.5813 118.515 15.6044 114.635 15.6044C110.754 15.6044 107.596 12.5813 107.596 8.86517C107.596 8.30815 107.125 7.85657 106.543 7.85657C105.961 7.85657 105.49 8.30815 105.49 8.86517C105.49 12.5813 102.332 15.6044 98.4515 15.6044C94.5706 15.6044 91.4134 12.5813 91.4134 8.86517C91.4134 8.30815 90.9418 7.85657 90.3601 7.85657C89.7783 7.85657 89.3067 8.30815 89.3067 8.86517C89.3067 12.5813 86.1494 15.6044 82.2685 15.6044C78.3876 15.6044 75.2304 12.5813 75.2304 8.86517C75.2304 8.30815 74.7587 7.85657 74.177 7.85657C73.5953 7.85657 73.1237 8.30815 73.1237 8.86517C73.1237 12.5813 69.9663 15.6044 66.0856 15.6044C65.5038 15.6044 65.0322 16.056 65.0322 16.613C65.0322 17.17 65.5038 17.6216 66.0856 17.6216ZM130.818 34.8653C126.937 34.8653 123.779 31.842 123.779 28.1261C123.779 27.5691 123.308 27.1175 122.726 27.1175C122.144 27.1175 121.673 27.5691 121.673 28.1261C121.673 31.842 118.515 34.8653 114.635 34.8653C110.754 34.8653 107.596 31.842 107.596 28.1261C107.596 27.5691 107.125 27.1175 106.543 27.1175C105.961 27.1175 105.49 27.5691 105.49 28.1261C105.49 31.842 102.332 34.8653 98.4516 34.8653C94.5709 34.8653 91.4135 31.842 91.4135 28.1261C91.4135 27.5691 90.9419 27.1175 90.3602 27.1175C89.7785 27.1175 89.3069 27.5691 89.3069 28.1261C89.3069 31.842 86.1495 34.8653 82.2686 34.8653C78.3878 34.8653 75.2305 31.842 75.2305 28.1261C75.2305 27.5691 74.7589 27.1175 74.1772 27.1175C73.5954 27.1175 73.1238 27.5691 73.1238 28.1261C73.1238 31.842 69.9665 34.8653 66.0857 34.8653C65.504 34.8653 65.0324 35.3169 65.0324 35.8739C65.0324 36.4309 65.504 36.8825 66.0857 36.8825C69.5915 36.8825 72.6429 34.9835 74.1772 32.2035C75.7114 34.9835 78.7628 36.8825 82.2686 36.8825C85.7744 36.8825 88.826 34.9835 90.3602 32.2035C91.8944 34.9835 94.9459 36.8825 98.4516 36.8825C101.957 36.8825 105.009 34.9835 106.543 32.2035C108.077 34.9835 111.129 36.8825 114.635 36.8825C118.14 36.8825 121.192 34.9835 122.726 32.2035C124.26 34.9835 127.312 36.8825 130.818 36.8825C131.399 36.8825 131.871 36.4309 131.871 35.8739C131.871 35.3169 131.399 34.8653 130.818 34.8653ZM130.818 54.1263C126.937 54.1263 123.779 51.1031 123.779 47.3871C123.779 46.8301 123.308 46.3785 122.726 46.3785C122.144 46.3785 121.673 46.8301 121.673 47.3871C121.673 51.1031 118.515 54.1263 114.635 54.1263C110.754 54.1263 107.596 51.1031 107.596 47.3871C107.596 46.8301 107.125 46.3785 106.543 46.3785C105.961 46.3785 105.49 46.8301 105.49 47.3871C105.49 51.1031 102.332 54.1263 98.4516 54.1263C94.5709 54.1263 91.4135 51.1031 91.4135 47.3871C91.4135 46.8301 90.9419 46.3785 90.3602 46.3785C89.7785 46.3785 89.3069 46.8301 89.3069 47.3871C89.3069 51.1031 86.1495 54.1263 82.2686 54.1263C78.3878 54.1263 75.2305 51.1031 75.2305 47.3871C75.2305 46.8301 74.7589 46.3785 74.1772 46.3785C73.5954 46.3785 73.1238 46.8301 73.1238 47.3871C73.1238 51.1031 69.9665 54.1263 66.0857 54.1263C65.504 54.1263 65.0324 54.5779 65.0324 55.1349C65.0324 55.6919 65.504 56.1435 66.0857 56.1435C69.5915 56.1435 72.6429 54.2445 74.1772 51.4646C75.7114 54.2445 78.7628 56.1435 82.2686 56.1435C85.7744 56.1435 88.826 54.2445 90.3602 51.4646C91.8944 54.2445 94.9459 56.1435 98.4516 56.1435C101.957 56.1435 105.009 54.2445 106.543 51.4646C108.077 54.2445 111.129 56.1435 114.635 56.1435C118.14 56.1435 121.192 54.2445 122.726 51.4646C124.26 54.2445 127.312 56.1435 130.818 56.1435C131.399 56.1435 131.871 55.6919 131.871 55.1349C131.871 54.5779 131.399 54.1263 130.818 54.1263Z" fill="#81B8B2"/>
</g>
<g clip-path="url(#clip2_50_161)">
<path d="M190.573 13.9663C190.961 13.5514 191.627 13.5162 192.06 13.8877C193.352 14.9946 195.018 15.6044 196.753 15.6044C197.335 15.6044 197.806 16.056 197.806 16.613C197.806 17.17 197.335 17.6216 196.753 17.6216C194.499 17.6216 192.333 16.8292 190.655 15.3905C190.222 15.019 190.185 14.3813 190.573 13.9663ZM132.021 17.6216C135.527 17.6216 138.578 15.7226 140.113 12.9426C141.647 15.7226 144.698 17.6216 148.204 17.6216C151.71 17.6216 154.761 15.7226 156.296 12.9426C157.83 15.7226 160.881 17.6216 164.387 17.6216C167.893 17.6216 170.944 15.7226 172.479 12.9426C174.013 15.7226 177.064 17.6216 180.57 17.6216C185.613 17.6216 189.715 13.6935 189.715 8.86517C189.715 8.30815 189.243 7.85657 188.662 7.85657C188.08 7.85657 187.608 8.30815 187.608 8.86517C187.608 12.5813 184.451 15.6044 180.57 15.6044C176.689 15.6044 173.532 12.5813 173.532 8.86517C173.532 8.30815 173.06 7.85657 172.479 7.85657C171.897 7.85657 171.425 8.30815 171.425 8.86517C171.425 12.5813 168.268 15.6044 164.387 15.6044C160.506 15.6044 157.349 12.5813 157.349 8.86517C157.349 8.30815 156.877 7.85657 156.296 7.85657C155.714 7.85657 155.242 8.30815 155.242 8.86517C155.242 12.5813 152.085 15.6044 148.204 15.6044C144.323 15.6044 141.166 12.5813 141.166 8.86517C141.166 8.30815 140.694 7.85657 140.113 7.85657C139.531 7.85657 139.059 8.30815 139.059 8.86517C139.059 12.5813 135.902 15.6044 132.021 15.6044C131.439 15.6044 130.968 16.056 130.968 16.613C130.968 17.17 131.439 17.6216 132.021 17.6216ZM196.753 34.8653C192.872 34.8653 189.715 31.842 189.715 28.1261C189.715 27.5691 189.243 27.1175 188.662 27.1175C188.08 27.1175 187.608 27.5691 187.608 28.1261C187.608 31.842 184.451 34.8653 180.57 34.8653C176.689 34.8653 173.532 31.842 173.532 28.1261C173.532 27.5691 173.06 27.1175 172.479 27.1175C171.897 27.1175 171.425 27.5691 171.425 28.1261C171.425 31.842 168.268 34.8653 164.387 34.8653C160.506 34.8653 157.349 31.842 157.349 28.1261C157.349 27.5691 156.877 27.1175 156.296 27.1175C155.714 27.1175 155.242 27.5691 155.242 28.1261C155.242 31.842 152.085 34.8653 148.204 34.8653C144.323 34.8653 141.166 31.842 141.166 28.1261C141.166 27.5691 140.694 27.1175 140.113 27.1175C139.531 27.1175 139.059 27.5691 139.059 28.1261C139.059 31.842 135.902 34.8653 132.021 34.8653C131.44 34.8653 130.968 35.3169 130.968 35.8739C130.968 36.4309 131.44 36.8825 132.021 36.8825C135.527 36.8825 138.578 34.9835 140.113 32.2035C141.647 34.9835 144.698 36.8825 148.204 36.8825C151.71 36.8825 154.762 34.9835 156.296 32.2035C157.83 34.9835 160.881 36.8825 164.387 36.8825C167.893 36.8825 170.944 34.9835 172.479 32.2035C174.013 34.9835 177.064 36.8825 180.57 36.8825C184.076 36.8825 187.127 34.9835 188.662 32.2035C190.196 34.9835 193.247 36.8825 196.753 36.8825C197.335 36.8825 197.806 36.4309 197.806 35.8739C197.806 35.3169 197.335 34.8653 196.753 34.8653ZM196.753 54.1263C192.872 54.1263 189.715 51.1031 189.715 47.3871C189.715 46.8301 189.243 46.3785 188.662 46.3785C188.08 46.3785 187.608 46.8301 187.608 47.3871C187.608 51.1031 184.451 54.1263 180.57 54.1263C176.689 54.1263 173.532 51.1031 173.532 47.3871C173.532 46.8301 173.06 46.3785 172.479 46.3785C171.897 46.3785 171.425 46.8301 171.425 47.3871C171.425 51.1031 168.268 54.1263 164.387 54.1263C160.506 54.1263 157.349 51.1031 157.349 47.3871C157.349 46.8301 156.877 46.3785 156.296 46.3785C155.714 46.3785 155.242 46.8301 155.242 47.3871C155.242 51.1031 152.085 54.1263 148.204 54.1263C144.323 54.1263 141.166 51.1031 141.166 47.3871C141.166 46.8301 140.694 46.3785 140.113 46.3785C139.531 46.3785 139.059 46.8301 139.059 47.3871C139.059 51.1031 135.902 54.1263 132.021 54.1263C131.44 54.1263 130.968 54.5779 130.968 55.1349C130.968 55.6919 131.44 56.1435 132.021 56.1435C135.527 56.1435 138.578 54.2445 140.113 51.4646C141.647 54.2445 144.698 56.1435 148.204 56.1435C151.71 56.1435 154.762 54.2445 156.296 51.4646C157.83 54.2445 160.881 56.1435 164.387 56.1435C167.893 56.1435 170.944 54.2445 172.479 51.4646C174.013 54.2445 177.064 56.1435 180.57 56.1435C184.076 56.1435 187.127 54.2445 188.662 51.4646C190.196 54.2445 193.247 56.1435 196.753 56.1435C197.335 56.1435 197.806 55.6919 197.806 55.1349C197.806 54.5779 197.335 54.1263 196.753 54.1263Z" fill="#81B8B2"/>
</g>
<g clip-path="url(#clip3_50_161)">
<path d="M255.605 13.9663C255.993 13.5514 256.659 13.5162 257.093 13.8877C258.384 14.9946 260.05 15.6044 261.785 15.6044C262.367 15.6044 262.839 16.056 262.839 16.613C262.839 17.17 262.367 17.6216 261.785 17.6216C259.531 17.6216 257.365 16.8292 255.687 15.3905C255.254 15.019 255.217 14.3813 255.605 13.9663ZM197.053 17.6216C200.559 17.6216 203.611 15.7226 205.145 12.9426C206.679 15.7226 209.73 17.6216 213.236 17.6216C216.742 17.6216 219.794 15.7226 221.328 12.9426C222.862 15.7226 225.913 17.6216 229.419 17.6216C232.925 17.6216 235.977 15.7226 237.511 12.9426C239.045 15.7226 242.096 17.6216 245.602 17.6216C250.645 17.6216 254.747 13.6935 254.747 8.86517C254.747 8.30815 254.276 7.85657 253.694 7.85657C253.112 7.85657 252.64 8.30815 252.64 8.86517C252.64 12.5813 249.483 15.6044 245.602 15.6044C241.721 15.6044 238.564 12.5813 238.564 8.86517C238.564 8.30815 238.092 7.85657 237.511 7.85657C236.929 7.85657 236.457 8.30815 236.457 8.86517C236.457 12.5813 233.3 15.6044 229.419 15.6044C225.538 15.6044 222.381 12.5813 222.381 8.86517C222.381 8.30815 221.91 7.85657 221.328 7.85657C220.746 7.85657 220.274 8.30815 220.274 8.86517C220.274 12.5813 217.117 15.6044 213.236 15.6044C209.355 15.6044 206.198 12.5813 206.198 8.86517C206.198 8.30815 205.727 7.85657 205.145 7.85657C204.563 7.85657 204.091 8.30815 204.091 8.86517C204.091 12.5813 200.934 15.6044 197.053 15.6044C196.472 15.6044 196 16.056 196 16.613C196 17.17 196.472 17.6216 197.053 17.6216ZM261.785 34.8653C257.905 34.8653 254.747 31.842 254.747 28.1261C254.747 27.5691 254.276 27.1175 253.694 27.1175C253.112 27.1175 252.641 27.5691 252.641 28.1261C252.641 31.842 249.483 34.8653 245.602 34.8653C241.722 34.8653 238.564 31.842 238.564 28.1261C238.564 27.5691 238.093 27.1175 237.511 27.1175C236.929 27.1175 236.458 27.5691 236.458 28.1261C236.458 31.842 233.3 34.8653 229.419 34.8653C225.539 34.8653 222.381 31.842 222.381 28.1261C222.381 27.5691 221.91 27.1175 221.328 27.1175C220.746 27.1175 220.275 27.5691 220.275 28.1261C220.275 31.842 217.117 34.8653 213.236 34.8653C209.356 34.8653 206.198 31.842 206.198 28.1261C206.198 27.5691 205.727 27.1175 205.145 27.1175C204.563 27.1175 204.092 27.5691 204.092 28.1261C204.092 31.842 200.934 34.8653 197.053 34.8653C196.472 34.8653 196 35.3169 196 35.8739C196 36.4309 196.472 36.8825 197.053 36.8825C200.559 36.8825 203.611 34.9835 205.145 32.2035C206.679 34.9835 209.731 36.8825 213.236 36.8825C216.742 36.8825 219.794 34.9835 221.328 32.2035C222.862 34.9835 225.914 36.8825 229.419 36.8825C232.925 36.8825 235.977 34.9835 237.511 32.2035C239.045 34.9835 242.097 36.8825 245.602 36.8825C249.108 36.8825 252.16 34.9835 253.694 32.2035C255.228 34.9835 258.28 36.8825 261.785 36.8825C262.367 36.8825 262.839 36.4309 262.839 35.8739C262.839 35.3169 262.367 34.8653 261.785 34.8653ZM261.785 54.1263C257.905 54.1263 254.747 51.1031 254.747 47.3871C254.747 46.8301 254.276 46.3785 253.694 46.3785C253.112 46.3785 252.641 46.8301 252.641 47.3871C252.641 51.1031 249.483 54.1263 245.602 54.1263C241.722 54.1263 238.564 51.1031 238.564 47.3871C238.564 46.8301 238.093 46.3785 237.511 46.3785C236.929 46.3785 236.458 46.8301 236.458 47.3871C236.458 51.1031 233.3 54.1263 229.419 54.1263C225.539 54.1263 222.381 51.1031 222.381 47.3871C222.381 46.8301 221.91 46.3785 221.328 46.3785C220.746 46.3785 220.275 46.8301 220.275 47.3871C220.275 51.1031 217.117 54.1263 213.236 54.1263C209.356 54.1263 206.198 51.1031 206.198 47.3871C206.198 46.8301 205.727 46.3785 205.145 46.3785C204.563 46.3785 204.092 46.8301 204.092 47.3871C204.092 51.1031 200.934 54.1263 197.053 54.1263C196.472 54.1263 196 54.5779 196 55.1349C196 55.6919 196.472 56.1435 197.053 56.1435C200.559 56.1435 203.611 54.2445 205.145 51.4646C206.679 54.2445 209.731 56.1435 213.236 56.1435C216.742 56.1435 219.794 54.2445 221.328 51.4646C222.862 54.2445 225.914 56.1435 229.419 56.1435C232.925 56.1435 235.977 54.2445 237.511 51.4646C239.045 54.2445 242.097 56.1435 245.602 56.1435C249.108 56.1435 252.16 54.2445 253.694 51.4646C255.228 54.2445 258.28 56.1435 261.785 56.1435C262.367 56.1435 262.839 55.6919 262.839 55.1349C262.839 54.5779 262.367 54.1263 261.785 54.1263Z" fill="#81B8B2"/>
</g>
<g clip-path="url(#clip4_50_161)">
<path d="M319.734 13.9663C320.122 13.5514 320.788 13.5162 321.222 13.8877C322.513 14.9946 324.179 15.6044 325.914 15.6044C326.496 15.6044 326.968 16.056 326.968 16.613C326.968 17.17 326.496 17.6216 325.914 17.6216C323.66 17.6216 321.494 16.8292 319.816 15.3905C319.383 15.019 319.346 14.3813 319.734 13.9663ZM261.182 17.6216C264.688 17.6216 267.74 15.7226 269.274 12.9426C270.808 15.7226 273.859 17.6216 277.365 17.6216C280.871 17.6216 283.923 15.7226 285.457 12.9426C286.991 15.7226 290.043 17.6216 293.548 17.6216C297.054 17.6216 300.106 15.7226 301.64 12.9426C303.174 15.7226 306.225 17.6216 309.731 17.6216C314.774 17.6216 318.876 13.6935 318.876 8.86517C318.876 8.30815 318.405 7.85657 317.823 7.85657C317.241 7.85657 316.769 8.30815 316.769 8.86517C316.769 12.5813 313.612 15.6044 309.731 15.6044C305.85 15.6044 302.693 12.5813 302.693 8.86517C302.693 8.30815 302.221 7.85657 301.64 7.85657C301.058 7.85657 300.586 8.30815 300.586 8.86517C300.586 12.5813 297.429 15.6044 293.548 15.6044C289.667 15.6044 286.51 12.5813 286.51 8.86517C286.51 8.30815 286.039 7.85657 285.457 7.85657C284.875 7.85657 284.404 8.30815 284.404 8.86517C284.404 12.5813 281.246 15.6044 277.365 15.6044C273.484 15.6044 270.327 12.5813 270.327 8.86517C270.327 8.30815 269.856 7.85657 269.274 7.85657C268.692 7.85657 268.22 8.30815 268.22 8.86517C268.22 12.5813 265.063 15.6044 261.182 15.6044C260.601 15.6044 260.129 16.056 260.129 16.613C260.129 17.17 260.601 17.6216 261.182 17.6216ZM325.914 34.8653C322.034 34.8653 318.876 31.842 318.876 28.1261C318.876 27.5691 318.405 27.1175 317.823 27.1175C317.241 27.1175 316.77 27.5691 316.77 28.1261C316.77 31.842 313.612 34.8653 309.731 34.8653C305.851 34.8653 302.693 31.842 302.693 28.1261C302.693 27.5691 302.222 27.1175 301.64 27.1175C301.058 27.1175 300.587 27.5691 300.587 28.1261C300.587 31.842 297.429 34.8653 293.548 34.8653C289.668 34.8653 286.51 31.842 286.51 28.1261C286.51 27.5691 286.039 27.1175 285.457 27.1175C284.875 27.1175 284.404 27.5691 284.404 28.1261C284.404 31.842 281.246 34.8653 277.365 34.8653C273.485 34.8653 270.327 31.842 270.327 28.1261C270.327 27.5691 269.856 27.1175 269.274 27.1175C268.692 27.1175 268.221 27.5691 268.221 28.1261C268.221 31.842 265.063 34.8653 261.183 34.8653C260.601 34.8653 260.129 35.3169 260.129 35.8739C260.129 36.4309 260.601 36.8825 261.183 36.8825C264.688 36.8825 267.74 34.9835 269.274 32.2035C270.808 34.9835 273.86 36.8825 277.365 36.8825C280.871 36.8825 283.923 34.9835 285.457 32.2035C286.991 34.9835 290.043 36.8825 293.548 36.8825C297.054 36.8825 300.106 34.9835 301.64 32.2035C303.174 34.9835 306.226 36.8825 309.731 36.8825C313.237 36.8825 316.289 34.9835 317.823 32.2035C319.357 34.9835 322.409 36.8825 325.914 36.8825C326.496 36.8825 326.968 36.4309 326.968 35.8739C326.968 35.3169 326.496 34.8653 325.914 34.8653ZM325.914 54.1263C322.034 54.1263 318.876 51.1031 318.876 47.3871C318.876 46.8301 318.405 46.3785 317.823 46.3785C317.241 46.3785 316.77 46.8301 316.77 47.3871C316.77 51.1031 313.612 54.1263 309.731 54.1263C305.851 54.1263 302.693 51.1031 302.693 47.3871C302.693 46.8301 302.222 46.3785 301.64 46.3785C301.058 46.3785 300.587 46.8301 300.587 47.3871C300.587 51.1031 297.429 54.1263 293.548 54.1263C289.668 54.1263 286.51 51.1031 286.51 47.3871C286.51 46.8301 286.039 46.3785 285.457 46.3785C284.875 46.3785 284.404 46.8301 284.404 47.3871C284.404 51.1031 281.246 54.1263 277.365 54.1263C273.485 54.1263 270.327 51.1031 270.327 47.3871C270.327 46.8301 269.856 46.3785 269.274 46.3785C268.692 46.3785 268.221 46.8301 268.221 47.3871C268.221 51.1031 265.063 54.1263 261.183 54.1263C260.601 54.1263 260.129 54.5779 260.129 55.1349C260.129 55.6919 260.601 56.1435 261.183 56.1435C264.688 56.1435 267.74 54.2445 269.274 51.4646C270.808 54.2445 273.86 56.1435 277.365 56.1435C280.871 56.1435 283.923 54.2445 285.457 51.4646C286.991 54.2445 290.043 56.1435 293.548 56.1435C297.054 56.1435 300.106 54.2445 301.64 51.4646C303.174 54.2445 306.226 56.1435 309.731 56.1435C313.237 56.1435 316.289 54.2445 317.823 51.4646C319.357 54.2445 322.409 56.1435 325.914 56.1435C326.496 56.1435 326.968 55.6919 326.968 55.1349C326.968 54.5779 326.496 54.1263 325.914 54.1263Z" fill="#81B8B2"/>
</g>
<g clip-path="url(#clip5_50_161)">
<path d="M384.766 13.9663C385.155 13.5514 385.82 13.5162 386.254 13.8877C387.545 14.9946 389.212 15.6044 390.947 15.6044C391.528 15.6044 392 16.056 392 16.613C392 17.17 391.528 17.6216 390.947 17.6216C388.692 17.6216 386.527 16.8292 384.849 15.3905C384.415 15.019 384.378 14.3813 384.766 13.9663ZM326.215 17.6216C329.72 17.6216 332.772 15.7226 334.306 12.9426C335.84 15.7226 338.892 17.6216 342.397 17.6216C345.903 17.6216 348.955 15.7226 350.489 12.9426C352.023 15.7226 355.075 17.6216 358.581 17.6216C362.086 17.6216 365.138 15.7226 366.672 12.9426C368.206 15.7226 371.258 17.6216 374.764 17.6216C379.806 17.6216 383.908 13.6935 383.908 8.86517C383.908 8.30815 383.437 7.85657 382.855 7.85657C382.273 7.85657 381.802 8.30815 381.802 8.86517C381.802 12.5813 378.644 15.6044 374.764 15.6044C370.883 15.6044 367.725 12.5813 367.725 8.86517C367.725 8.30815 367.254 7.85657 366.672 7.85657C366.09 7.85657 365.619 8.30815 365.619 8.86517C365.619 12.5813 362.461 15.6044 358.581 15.6044C354.7 15.6044 351.542 12.5813 351.542 8.86517C351.542 8.30815 351.071 7.85657 350.489 7.85657C349.907 7.85657 349.436 8.30815 349.436 8.86517C349.436 12.5813 346.278 15.6044 342.397 15.6044C338.517 15.6044 335.359 12.5813 335.359 8.86517C335.359 8.30815 334.888 7.85657 334.306 7.85657C333.724 7.85657 333.253 8.30815 333.253 8.86517C333.253 12.5813 330.095 15.6044 326.215 15.6044C325.633 15.6044 325.161 16.056 325.161 16.613C325.161 17.17 325.633 17.6216 326.215 17.6216ZM390.947 34.8653C387.066 34.8653 383.909 31.842 383.909 28.1261C383.909 27.5691 383.437 27.1175 382.855 27.1175C382.273 27.1175 381.802 27.5691 381.802 28.1261C381.802 31.842 378.644 34.8653 374.764 34.8653C370.883 34.8653 367.725 31.842 367.725 28.1261C367.725 27.5691 367.254 27.1175 366.672 27.1175C366.09 27.1175 365.619 27.5691 365.619 28.1261C365.619 31.842 362.461 34.8653 358.581 34.8653C354.7 34.8653 351.543 31.842 351.543 28.1261C351.543 27.5691 351.071 27.1175 350.489 27.1175C349.908 27.1175 349.436 27.5691 349.436 28.1261C349.436 31.842 346.279 34.8653 342.398 34.8653C338.517 34.8653 335.36 31.842 335.36 28.1261C335.36 27.5691 334.888 27.1175 334.306 27.1175C333.724 27.1175 333.253 27.5691 333.253 28.1261C333.253 31.842 330.096 34.8653 326.215 34.8653C325.633 34.8653 325.161 35.3169 325.161 35.8739C325.161 36.4309 325.633 36.8825 326.215 36.8825C329.721 36.8825 332.772 34.9835 334.306 32.2035C335.84 34.9835 338.892 36.8825 342.398 36.8825C345.903 36.8825 348.955 34.9835 350.489 32.2035C352.023 34.9835 355.075 36.8825 358.581 36.8825C362.086 36.8825 365.138 34.9835 366.672 32.2035C368.206 34.9835 371.258 36.8825 374.764 36.8825C378.27 36.8825 381.321 34.9835 382.855 32.2035C384.389 34.9835 387.441 36.8825 390.947 36.8825C391.528 36.8825 392 36.4309 392 35.8739C392 35.3169 391.528 34.8653 390.947 34.8653ZM390.947 54.1263C387.066 54.1263 383.909 51.1031 383.909 47.3871C383.909 46.8301 383.437 46.3785 382.855 46.3785C382.273 46.3785 381.802 46.8301 381.802 47.3871C381.802 51.1031 378.644 54.1263 374.764 54.1263C370.883 54.1263 367.725 51.1031 367.725 47.3871C367.725 46.8301 367.254 46.3785 366.672 46.3785C366.09 46.3785 365.619 46.8301 365.619 47.3871C365.619 51.1031 362.461 54.1263 358.581 54.1263C354.7 54.1263 351.543 51.1031 351.543 47.3871C351.543 46.8301 351.071 46.3785 350.489 46.3785C349.908 46.3785 349.436 46.8301 349.436 47.3871C349.436 51.1031 346.279 54.1263 342.398 54.1263C338.517 54.1263 335.36 51.1031 335.36 47.3871C335.36 46.8301 334.888 46.3785 334.306 46.3785C333.724 46.3785 333.253 46.8301 333.253 47.3871C333.253 51.1031 330.096 54.1263 326.215 54.1263C325.633 54.1263 325.161 54.5779 325.161 55.1349C325.161 55.6919 325.633 56.1435 326.215 56.1435C329.721 56.1435 332.772 54.2445 334.306 51.4646C335.84 54.2445 338.892 56.1435 342.398 56.1435C345.903 56.1435 348.955 54.2445 350.489 51.4646C352.023 54.2445 355.075 56.1435 358.581 56.1435C362.086 56.1435 365.138 54.2445 366.672 51.4646C368.206 54.2445 371.258 56.1435 374.764 56.1435C378.27 56.1435 381.321 54.2445 382.855 51.4646C384.389 54.2445 387.441 56.1435 390.947 56.1435C391.528 56.1435 392 55.6919 392 55.1349C392 54.5779 391.528 54.1263 390.947 54.1263Z" fill="#81B8B2"/>
</g>
<defs>
<clipPath id="clip0_50_161">
<rect width="66.8387" height="64" fill="white"/>
</clipPath>
<clipPath id="clip1_50_161">
<rect width="66.8387" height="64" fill="white" transform="translate(65.0322)"/>
</clipPath>
<clipPath id="clip2_50_161">
<rect width="66.8387" height="64" fill="white" transform="translate(130.968)"/>
</clipPath>
<clipPath id="clip3_50_161">
<rect width="66.8387" height="64" fill="white" transform="translate(196)"/>
</clipPath>
<clipPath id="clip4_50_161">
<rect width="66.8387" height="64" fill="white" transform="translate(260.129)"/>
</clipPath>
<clipPath id="clip5_50_161">
<rect width="66.8387" height="64" fill="white" transform="translate(325.161)"/>
</clipPath>
</defs>
</svg>
