<svg width="32" height="33" viewBox="0 0 32 33" fill="none" xmlns="http://www.w3.org/2000/svg">
<path d="M16 2.5C16.5304 2.5 17.0391 2.71071 17.4142 3.08579C17.7893 3.46086 18 3.96957 18 4.5V6.5H14V4.5C14 3.96957 14.2107 3.46086 14.5858 3.08579C14.9609 2.71071 15.4696 2.5 16 2.5Z" fill="#E8EAEC"/>
<path d="M8 24.5H24V14.5C24 12.3783 23.1571 10.3434 21.6569 8.84315C20.1566 7.34285 18.1217 6.5 16 6.5C13.8783 6.5 11.8434 7.34285 10.3431 8.84315C8.84285 10.3434 8 12.3783 8 14.5V24.5ZM16 4.5C18.6522 4.5 21.1957 5.55357 23.0711 7.42893C24.9464 9.3043 26 11.8478 26 14.5V26.5H6V14.5C6 11.8478 7.05357 9.3043 8.92893 7.42893C10.8043 5.55357 13.3478 4.5 16 4.5Z" fill="#E8EAEC"/>
<path d="M3 24.5H29C29.6667 24.5 30 24.8333 30 25.5C30 26.1667 29.6667 26.5 29 26.5H3C2.33333 26.5 2 26.1667 2 25.5C2 24.8333 2.33333 24.5 3 24.5ZM14 28.5H18C18 29.0304 17.7893 29.5391 17.4142 29.9142C17.0391 30.2893 16.5304 30.5 16 30.5C15.4696 30.5 14.9609 30.2893 14.5858 29.9142C14.2107 29.5391 14 29.0304 14 28.5Z" fill="#E8EAEC"/>
</svg>
