<svg width="28" height="28" viewBox="0 0 28 28" fill="none" xmlns="http://www.w3.org/2000/svg">
<g clip-path="url(#clip0_41_424)">
<path d="M24.5 5.25H15.75V3.5C15.75 3.03587 15.5656 2.59075 15.2374 2.26256C14.9092 1.93437 14.4641 1.75 14 1.75H3.5C3.03587 1.75 2.59075 1.93437 2.26256 2.26256C1.93437 2.59075 1.75 3.03587 1.75 3.5V21C1.75 21.4641 1.93437 21.9092 2.26256 22.2374C2.59075 22.5656 3.03587 22.75 3.5 22.75H12.25V24.5C12.25 24.9641 12.4344 25.4092 12.7626 25.7374C13.0908 26.0656 13.5359 26.25 14 26.25H24.5C24.9641 26.25 25.4092 26.0656 25.7374 25.7374C26.0656 25.4092 26.25 24.9641 26.25 24.5V7C26.25 6.53587 26.0656 6.09075 25.7374 5.76256C25.4092 5.43437 24.9641 5.25 24.5 5.25ZM3.5 13.125H8.89875L6.64125 15.3913L7.875 16.625L12.25 12.25L7.875 7.875L6.64125 9.10875L8.89875 11.375H3.5V3.5H14V21H3.5V13.125ZM14 24.5V22.75C14.4641 22.75 14.9092 22.5656 15.2374 22.2374C15.5656 21.9092 15.75 21.4641 15.75 21V7H24.5V14.875H19.1012L21.3587 12.6087L20.125 11.375L15.75 15.75L20.125 20.125L21.3587 18.8913L19.1012 16.625H24.5V24.5H14Z" fill="#82A294"/>
</g>
<defs>
<clipPath id="clip0_41_424">
<rect width="28" height="28" fill="white"/>
</clipPath>
</defs>
</svg>
