<svg width="20" height="20" viewBox="0 0 20 20" fill="none" xmlns="http://www.w3.org/2000/svg">
<g clip-path="url(#clip0_26_377)">
<path d="M10 9.11612L14.8614 4.25476C14.9786 4.13755 15.1375 4.0717 15.3033 4.0717C15.4691 4.0717 15.628 4.13755 15.7452 4.25476C15.8625 4.37197 15.9283 4.53094 15.9283 4.6967C15.9283 4.86246 15.8625 5.02143 15.7452 5.13864L10.8839 10L15.7452 14.8614C15.8625 14.9786 15.9283 15.1375 15.9283 15.3033C15.9283 15.4691 15.8625 15.628 15.7452 15.7452C15.628 15.8625 15.4691 15.9283 15.3033 15.9283C15.1375 15.9283 14.9786 15.8625 14.8614 15.7452L10 10.8839L5.13864 15.7452C5.02143 15.8625 4.86246 15.9283 4.6967 15.9283C4.53094 15.9283 4.37197 15.8625 4.25476 15.7452C4.13755 15.628 4.0717 15.4691 4.0717 15.3033C4.0717 15.1375 4.13755 14.9786 4.25476 14.8614L9.11612 10L4.25476 5.13864C4.13755 5.02143 4.0717 4.86246 4.0717 4.6967C4.0717 4.53094 4.13755 4.37197 4.25476 4.25476C4.37197 4.13755 4.53094 4.0717 4.6967 4.0717C4.86246 4.0717 5.02143 4.13755 5.13864 4.25476L10 9.11612Z" fill="#82A294" stroke="#82A294"/>
</g>
<defs>
<clipPath id="clip0_26_377">
<rect width="20" height="20" fill="white"/>
</clipPath>
</defs>
</svg>
