<svg xmlns="http://www.w3.org/2000/svg" fill="none" viewBox="0 0 24 24" class="icon" filled="false"><path fill="currentColor" d="M7.457 22c-.5 0-.928-.178-1.284-.534a1.75 1.75 0 0 1-.534-1.284V3.818c0-.5.178-.928.534-1.284A1.75 1.75 0 0 1 7.457 2h6.363v1.818H7.457v.91h6.363v1.817H7.457v10.91h9.09v-1.819h1.819v4.546c0 .5-.178.928-.534 1.284a1.75 1.75 0 0 1-1.284.534H7.457Zm9.09-11.636V4.727a.88.88 0 0 1 .262-.647.88.88 0 0 1 .648-.262.88.88 0 0 1 .648.262.88.88 0 0 1 .26.647v5.637l1.728-1.728a.862.862 0 0 1 .637-.25c.257 0 .47.084.636.25.167.167.25.38.25.637s-.083.47-.25.636l-3.273 3.273a.872.872 0 0 1-.636.272.872.872 0 0 1-.637-.272l-3.272-3.273a.862.862 0 0 1-.25-.636c0-.258.083-.47.25-.637a.862.862 0 0 1 .636-.25c.258 0 .47.084.636.25l1.728 1.728ZM13.82 4.727H7.457v-.909h6.363v.91Z"></path></svg>