<svg width="44" height="44" viewBox="0 0 44 44" fill="none" xmlns="http://www.w3.org/2000/svg">
<path d="M38.5001 15.1498V15.125C38.5002 12.6804 37.7762 10.2906 36.4195 8.257C35.0628 6.22343 33.1342 4.63723 30.877 3.69853C28.6198 2.75983 26.1352 2.51068 23.7366 2.98252C21.338 3.45436 19.1328 4.62604 17.3994 6.34975C16.0355 5.67658 14.5121 5.39355 12.9974 5.53192C11.4828 5.67029 10.0358 6.22468 8.81652 7.13384C7.59719 8.043 6.65294 9.27154 6.08806 10.6837C5.52318 12.0959 5.35968 13.6367 5.61563 15.136C5.23933 15.1709 4.87427 15.283 4.54323 15.4653C4.21219 15.6476 3.92228 15.8962 3.69159 16.1955C3.4609 16.4949 3.29437 16.8385 3.20242 17.2051C3.11046 17.5716 3.09504 17.9532 3.15713 18.326C4.40013 25.8033 7.47463 30.536 12.3751 32.527V34.375C12.3751 35.469 12.8097 36.5182 13.5833 37.2918C14.3569 38.0654 15.4061 38.5 16.5001 38.5H27.5001C28.5941 38.5 29.6434 38.0654 30.4169 37.2918C31.1905 36.5182 31.6251 35.469 31.6251 34.375V32.527C36.5256 30.536 39.6001 25.8033 40.8431 18.326C40.9031 17.9631 40.8897 17.5919 40.8037 17.2343C40.7176 16.8767 40.5608 16.54 40.3423 16.2441C40.1238 15.9482 39.8482 15.6991 39.5318 15.5116C39.2154 15.3241 38.8646 15.202 38.5001 15.1525V15.1498ZM35.7501 15.125H33.0001C33.0001 13.3016 32.2758 11.553 30.9865 10.2636C29.6972 8.97433 27.9485 8.25 26.1251 8.25C24.3018 8.25 22.5531 8.97433 21.2638 10.2636C19.9745 11.553 19.2501 13.3016 19.2501 15.125H16.5001C16.5001 12.5723 17.5142 10.1241 19.3192 8.3191C21.1243 6.51406 23.5724 5.5 26.1251 5.5C28.6778 5.5 31.126 6.51406 32.931 8.3191C34.7361 10.1241 35.7501 12.5723 35.7501 15.125ZM30.2501 15.125H22.0001C22.0001 14.031 22.4347 12.9818 23.2083 12.2082C23.9819 11.4346 25.0311 11 26.1251 11C27.2191 11 28.2684 11.4346 29.0419 12.2082C29.8155 12.9818 30.2501 14.031 30.2501 15.125ZM11.3686 15.125H8.42338C8.21577 14.3123 8.19641 13.4629 8.36679 12.6416C8.53716 11.8203 8.89277 11.0487 9.40651 10.3856C9.92025 9.72258 10.5786 9.18554 11.3313 8.81544C12.084 8.44534 12.9113 8.25195 13.7501 8.25C14.4101 8.25 15.0371 8.3655 15.6201 8.57725C15.1334 9.35825 14.7319 10.1998 14.4239 11.0825C13.9001 10.9526 13.3497 10.9793 12.841 11.1594C12.3323 11.3395 11.8876 11.665 11.5623 12.0955C11.2369 12.5261 11.0451 13.0427 11.0107 13.5812C10.9762 14.1198 11.1007 14.6566 11.3686 15.125ZM15.1251 33H28.8751V34.375C28.8751 34.7397 28.7303 35.0894 28.4724 35.3473C28.2145 35.6051 27.8648 35.75 27.5001 35.75H16.5001C16.1355 35.75 15.7857 35.6051 15.5279 35.3473C15.27 35.0894 15.1251 34.7397 15.1251 34.375V33ZM29.8431 30.25H14.1571C9.79563 28.8475 7.03463 24.882 5.86863 17.875H38.1316C36.9656 24.882 34.2046 28.8475 29.8431 30.25Z" fill="#81B8B2"/>
</svg>
