<svg width="203" height="98" viewBox="0 0 203 98" fill="none" xmlns="http://www.w3.org/2000/svg">
<path d="M9.55441 7.30196C9.55441 1.92157 13.3762 0 17.1979 0C21.0197 0 24.4593 1.92157 24.4593 7.30196C24.4593 11.542 22.3706 13.5354 20.426 14.2763C19.7007 14.5526 19.1088 15.1886 19.1088 15.9647V18.2081C19.1088 19.5137 20.6514 20.2339 21.7124 19.473C23.1323 18.4546 24.4593 17.71 24.4593 18.4471C24.4593 19.6769 24.0771 21.1373 23.3128 22.2902C22.5773 23.3996 21.0092 24.3713 20.0098 24.912C19.4714 25.2033 19.1147 25.7615 19.1238 26.3736L19.4491 48.2946C19.4672 49.5089 20.828 50.2268 21.8473 49.5664C22.7214 49.0001 23.751 48.3402 24.8415 47.6549C27.8989 45.7333 29.4276 44.9647 31.7206 44.5804C34.0137 44.1961 34.778 44.5804 34.0137 46.8863C33.2493 49.1922 31.3385 50.3451 28.6632 52.2667C26.9391 53.5051 23.4458 53.9952 21.0204 54.139C20.1762 54.1891 19.491 54.8738 19.491 55.7195V75.4174C19.491 76.4878 20.5614 77.2254 21.5295 76.769C22.2906 76.4102 23.0036 76.0207 23.3128 75.7098C24.0771 74.9412 26.3702 73.0196 28.6632 71.8667C30.9563 70.7137 33.6315 70.3294 34.0137 70.7137C34.3959 71.098 34.778 72.251 34.0137 73.7882C33.2493 75.3255 32.485 76.8627 29.8097 78.4C27.6696 79.6298 25.0962 79.9373 24.0771 79.9373H21.0222C20.1766 79.9373 19.491 80.6228 19.491 81.4685V96.4688C19.491 97.3144 18.8054 98 17.9597 98H16.0539C15.2083 98 14.5227 97.3144 14.5227 96.4688V26.1273C14.5227 25.2816 13.8377 24.5924 12.9945 24.528C11.5969 24.4213 9.57481 24.1472 8.40788 23.4431C6.497 22.2902 2.29306 19.9843 1.14653 15.7569C0.380708 12.9331 1.14653 9.99216 1.91088 9.99216C2.67524 9.99216 5.87968 11.6418 6.87917 13.451L6.90427 13.4964C7.76735 15.0588 9.74506 18.6388 11.0831 19.9843C11.5934 20.4975 11.9334 20.9974 12.7853 21.3874C13.6462 21.7814 14.5227 21.0137 14.5227 20.0669V16.1055C14.5227 15.2598 13.8136 14.5622 13.0512 14.1962C11.4202 13.4132 9.55441 11.3401 9.55441 7.30196Z" fill="#81B8B2"/>
<path d="M8.0257 30.3608C10.7774 32.5129 11.4653 34.9725 10.7009 36.1255C9.93658 37.2784 5.65621 35.3569 3.82176 33.8196C2.53004 32.7371 1.79416 30.7654 1.42732 29.1121C1.21934 28.1747 2.0296 27.4119 2.94604 27.6984C4.36051 28.1406 6.24132 28.9652 8.0257 30.3608Z" fill="#81B8B2"/>
<path d="M28.281 30.3608C26.8073 32.7319 23.9129 33.7459 22.6794 33.1271C22.5891 33.0818 22.5097 33.0173 22.4527 32.9339C22.1153 32.4399 21.9132 31.1782 23.3128 29.2078C24.3129 27.7998 26.2402 26.2052 27.9171 24.9839C28.8868 24.2777 30.1177 24.9937 29.8733 26.1682C29.5957 27.5014 29.1049 29.0353 28.281 30.3608Z" fill="#81B8B2"/>
<path d="M31.7206 61.4902C30.5916 62.4364 29.115 62.9458 27.8791 63.1976C26.92 63.3931 25.9671 62.4731 26.1835 61.5184C26.3459 60.8018 26.7628 59.9424 27.8989 58.8C29.8097 56.8784 34.778 54.5726 35.1602 56.1098C35.5424 57.6471 34.0137 59.5686 31.7206 61.4902Z" fill="#81B8B2"/>
<path d="M7.26135 62.2588C11.0144 64.6176 12.608 67.1272 13.1465 68.7463C13.3728 69.4267 12.874 70.054 12.157 70.0556C10.5642 70.0589 7.96131 69.6442 4.96829 68.0235C1.33215 66.0547 0.190869 62.4347 0.0228483 60.4592C-0.00511127 60.1305 0.111506 59.7869 0.430148 59.7014C1.28983 59.4707 3.34457 59.7971 7.26135 62.2588Z" fill="#81B8B2"/>
<path d="M7.26135 75.3255C12.7647 75.018 13.5036 77.5033 13.3762 78.7843C13.3762 80.7059 12.3825 80.7059 8.40788 80.7059C5.225 80.7059 2.48326 79.8844 0.928465 79.2282C0.354327 78.9858 0.0457099 78.354 0.41593 77.8527C1.18729 76.8083 3.13654 75.5559 7.26135 75.3255Z" fill="#81B8B2"/>
<path d="M64.6341 42.98C65.0934 42.0612 65.3231 41.1731 65.3231 40.3156C65.3231 39.4581 65.2772 38.7997 65.1853 38.3403C65.0934 37.8503 64.9403 37.4216 64.7259 37.0541C64.2666 36.2578 63.5775 35.8597 62.6588 35.8597C61.5256 35.8597 60.4997 36.2731 59.5809 37.1C58.6009 37.9575 58.1109 39.06 58.1109 40.4075C58.1109 41.265 58.4019 42.0306 58.9838 42.7044C59.5963 43.3475 60.3619 43.9753 61.2806 44.5878C62.1994 45.2003 63.1794 45.8128 64.2206 46.4253C65.2619 47.0378 66.2419 47.7116 67.1606 48.4466C69.2738 50.1309 70.3303 52.1062 70.3303 54.3725C70.3303 55.9037 69.9169 57.3278 69.09 58.6447C68.2938 59.9309 67.2219 61.0487 65.8744 61.9981C62.9344 64.0806 59.5197 65.1219 55.6303 65.1219C52.4759 65.1219 50.0872 64.6166 48.4641 63.6059C46.8409 62.5647 46.0294 61.2631 46.0294 59.7012C46.0294 56.9144 47.1166 55.1687 49.2909 54.4644C49.9034 54.25 50.6691 54.1428 51.5878 54.1428C52.5372 54.1428 53.5478 54.3419 54.6197 54.74C54.1297 55.9956 53.8847 57.19 53.8847 58.3231C53.8847 60.7731 54.7575 61.9981 56.5031 61.9981C57.6363 61.9981 58.6622 61.5847 59.5809 60.7578C60.5303 59.9309 61.005 59.0581 61.005 58.1394C61.005 57.19 60.6988 56.3784 60.0863 55.7047C59.5044 55.0309 58.7694 54.4337 57.8813 53.9131C56.9931 53.3619 56.0284 52.8259 54.9872 52.3053C53.9766 51.7847 53.0272 51.1569 52.1391 50.4219C50.0566 48.7375 49.0153 46.5478 49.0153 43.8528C49.0153 42.1072 49.4441 40.5606 50.3016 39.2131C51.1591 37.835 52.2769 36.6866 53.655 35.7678C56.4113 33.8997 59.4738 32.9656 62.8425 32.9656C66.2419 32.9656 68.7531 33.4709 70.3763 34.4816C72.03 35.4922 72.8569 36.855 72.8569 38.57C72.8569 40.0706 72.275 41.2956 71.1113 42.245C70.1006 43.0412 68.9828 43.4394 67.7578 43.4394C66.5328 43.4394 65.4916 43.2862 64.6341 42.98ZM77.4894 41.8316C76.4481 41.0353 75.9275 39.795 75.9275 38.1106C75.9275 36.3956 76.4788 35.0941 77.5813 34.2059C78.7144 33.3178 80.2456 32.8737 82.175 32.8737C83.4 32.8737 85.4672 33.0881 88.3766 33.5169L91.5003 33.9762C92.5416 34.0987 93.5981 34.16 94.67 34.16C95.7725 34.16 96.6913 33.9303 97.4263 33.4709C98.5288 34.4509 99.08 35.6453 99.08 37.0541C99.08 38.4628 98.4522 39.6725 97.1966 40.6831C95.9103 41.755 94.4403 42.2909 92.7866 42.2909C91.9903 42.2909 90.9491 42.1837 89.6628 41.9694C88.1622 46.6856 87.4119 50.6822 87.4119 53.9591C87.4119 57.2359 88.2388 59.7319 89.8925 61.4469C89.1269 62.825 88.1775 63.7744 87.0444 64.295C85.9113 64.8463 84.4872 65.1219 82.7722 65.1219C81.0878 65.1219 79.7097 64.6625 78.6378 63.7437C77.5966 62.7944 77.0759 61.355 77.0759 59.4256C77.0759 57.19 77.6884 54.2347 78.9134 50.5597C80.1384 46.9153 81.6697 43.6997 83.5072 40.9128C82.6191 40.8209 81.7156 40.775 80.7969 40.775C78.8981 40.775 77.7956 41.1272 77.4894 41.8316ZM97.1772 64.2031L102.782 34.0222C105.813 33.6853 109.534 33.5169 113.944 33.5169C118.385 33.5169 121.631 34.16 123.683 35.4462C125.735 36.7325 126.761 38.6772 126.761 41.2803C126.761 43.8528 126.087 45.9506 124.74 47.5737C123.423 49.1969 121.616 50.2687 119.319 50.7894C119.84 53.3312 120.697 55.6281 121.892 57.68C122.994 59.6094 124.188 60.8803 125.475 61.4928C125.015 62.7791 124.311 63.6978 123.362 64.2491C122.443 64.8309 121.31 65.1219 119.962 65.1219C118.645 65.1219 117.466 64.7391 116.425 63.9734C115.384 63.1772 114.45 62.0594 113.623 60.62C111.877 57.4962 110.913 53.4691 110.729 48.5384H111.05C113.317 48.4772 115.016 47.8647 116.149 46.7009C117.283 45.5066 117.849 43.6691 117.849 41.1884C117.849 38.0953 116.548 36.4875 113.944 36.365H112.934C112.658 36.365 112.444 36.3803 112.291 36.4109L107.008 64.2031H97.1772ZM128.353 64.2031L134.187 33.8844H144.294L138.368 64.2031H128.353ZM175.136 45.1391C175.136 58.1853 168.062 64.7084 153.913 64.7084C151.647 64.7084 148.645 64.4328 144.909 63.8816L150.054 36.7325C150.299 35.5075 150.498 34.5428 150.651 33.8384C155.306 33.5016 158.66 33.3331 160.712 33.3331C162.794 33.3331 164.785 33.5475 166.684 33.9762C168.582 34.405 170.159 35.0941 171.415 36.0434C173.896 37.9116 175.136 40.9434 175.136 45.1391ZM165.673 43.4394C165.673 38.8762 164.034 36.5947 160.758 36.5947H160.298C160.145 36.5947 159.992 36.61 159.839 36.6406L155.107 61.3091C155.23 61.3703 155.352 61.4009 155.475 61.4009H155.842C156.975 61.4009 158.124 61.0487 159.288 60.3444C160.482 59.64 161.539 58.5681 162.457 57.1287C164.601 53.7906 165.673 49.2275 165.673 43.4394ZM197.103 57.1287C197.685 57.8637 197.976 58.8284 197.976 60.0228C197.976 61.6766 197.363 62.9475 196.138 63.8356C194.913 64.6931 193.336 65.1219 191.407 65.1219C190.304 65.1219 188.911 64.9994 187.227 64.7544C183.919 64.2337 181.76 63.9734 180.749 63.9734C179.739 63.9734 179.034 64.0041 178.636 64.0653C178.238 64.0959 177.717 64.1419 177.074 64.2031L182.725 33.8844H202.524C202.524 35.7525 202.064 37.1766 201.146 38.1566C200.257 39.1366 198.925 39.6266 197.149 39.6266C195.373 39.6266 193.581 39.2131 191.774 38.3862L190.35 46.4253H198.527C198.527 48.0484 198.129 49.3194 197.333 50.2381C196.537 51.1262 195.465 51.5703 194.117 51.5703C192.8 51.5703 191.728 51.4172 190.902 51.1109C190.075 50.8047 189.615 50.6056 189.523 50.5137L187.87 59.1959C188.605 59.2878 189.661 59.3337 191.039 59.3337C193.397 59.3337 195.419 58.5987 197.103 57.1287Z" fill="#81B8B2"/>
</svg>
