<svg width="28" height="29" viewBox="0 0 28 29" fill="none" xmlns="http://www.w3.org/2000/svg">
<path d="M5.51403 6.01399C4.38048 7.15115 3.48667 8.50424 2.88553 9.9931C2.2844 11.482 1.98817 13.0763 2.01439 14.6817C2.04062 16.2872 2.38875 17.871 3.03819 19.3394C3.68762 20.8079 4.62514 22.131 5.79522 23.2306C6.9653 24.3301 8.34415 25.1836 9.85008 25.7406C11.356 26.2976 12.9584 26.5467 14.5624 26.4732C16.1663 26.3996 17.7392 26.005 19.1878 25.3125C20.6365 24.6201 21.9315 23.644 22.996 22.442C20.6571 23.0172 18.2093 22.9793 15.8892 22.3318C13.5692 21.6844 11.4555 20.4493 9.75244 18.746C8.04936 17.0427 6.81454 14.9289 6.16735 12.6088C5.52016 10.2887 5.48251 7.84089 6.05803 5.50199C5.87151 5.66707 5.69009 5.83782 5.51403 6.01399ZM11.172 17.328C13.331 19.4871 16.2318 20.7419 19.2836 20.8371C22.3355 20.9322 25.3088 19.8604 27.598 17.84C27.0049 20.2499 25.7819 22.4589 24.0541 24.2406C22.3264 26.0222 20.156 27.3126 17.7655 27.9795C15.3749 28.6464 12.85 28.6658 10.4495 28.0357C8.04899 27.4056 5.85909 26.1488 4.10417 24.3939C2.34924 22.6389 1.09238 20.449 0.462317 18.0485C-0.167741 15.648 -0.14834 13.1231 0.518533 10.7325C1.18541 8.34198 2.47578 6.17165 4.25746 4.44391C6.03915 2.71616 8.2481 1.49309 10.658 0.899994C8.63729 3.18961 7.5655 6.1635 7.661 9.21581C7.7565 12.2681 9.01211 15.1692 11.172 17.328Z" fill="#507F69"/>
</svg>
