<svg width="22" height="22" viewBox="0 0 22 22" fill="none" xmlns="http://www.w3.org/2000/svg">
<path d="M4.125 2.75V19.25H17.875V2.75H4.125ZM3.4375 1.375H18.5625C18.7448 1.375 18.9197 1.44743 19.0486 1.57636C19.1776 1.7053 19.25 1.88016 19.25 2.0625V19.9375C19.25 20.1198 19.1776 20.2947 19.0486 20.4236C18.9197 20.5526 18.7448 20.625 18.5625 20.625H3.4375C3.25516 20.625 3.0803 20.5526 2.95136 20.4236C2.82243 20.2947 2.75 20.1198 2.75 19.9375V2.0625C2.75 1.88016 2.82243 1.7053 2.95136 1.57636C3.0803 1.44743 3.25516 1.375 3.4375 1.375Z" fill="#82A294"/>
<path d="M14.4375 2.75H15.8125V19.25H14.4375V2.75ZM2.0625 4.125H4.8125C5.27083 4.125 5.5 4.35417 5.5 4.8125C5.5 5.27083 5.27083 5.5 4.8125 5.5H2.0625C1.60417 5.5 1.375 5.27083 1.375 4.8125C1.375 4.35417 1.60417 4.125 2.0625 4.125ZM2.0625 8.25H4.8125C5.27083 8.25 5.5 8.47917 5.5 8.9375C5.5 9.39583 5.27083 9.625 4.8125 9.625H2.0625C1.60417 9.625 1.375 9.39583 1.375 8.9375C1.375 8.47917 1.60417 8.25 2.0625 8.25ZM2.0625 12.375H4.8125C5.27083 12.375 5.5 12.6042 5.5 13.0625C5.5 13.5208 5.27083 13.75 4.8125 13.75H2.0625C1.60417 13.75 1.375 13.5208 1.375 13.0625C1.375 12.6042 1.60417 12.375 2.0625 12.375ZM2.0625 16.5H4.8125C5.27083 16.5 5.5 16.7292 5.5 17.1875C5.5 17.6458 5.27083 17.875 4.8125 17.875H2.0625C1.60417 17.875 1.375 17.6458 1.375 17.1875C1.375 16.7292 1.60417 16.5 2.0625 16.5Z" fill="#82A294"/>
</svg>
