<svg width="24" height="28" viewBox="0 0 24 28" fill="none" xmlns="http://www.w3.org/2000/svg">
<path d="M12 14.5C13.5913 14.5 15.1174 13.8679 16.2426 12.7426C17.3679 11.6174 18 10.0913 18 8.5C18 6.9087 17.3679 5.38258 16.2426 4.25736C15.1174 3.13214 13.5913 2.5 12 2.5C10.4087 2.5 8.88258 3.13214 7.75736 4.25736C6.63214 5.38258 6 6.9087 6 8.5C6 10.0913 6.63214 11.6174 7.75736 12.7426C8.88258 13.8679 10.4087 14.5 12 14.5ZM12 16.5C9.87827 16.5 7.84344 15.6571 6.34315 14.1569C4.84285 12.6566 4 10.6217 4 8.5C4 6.37827 4.84285 4.34344 6.34315 2.84315C7.84344 1.34285 9.87827 0.5 12 0.5C14.1217 0.5 16.1566 1.34285 17.6569 2.84315C19.1571 4.34344 20 6.37827 20 8.5C20 10.6217 19.1571 12.6566 17.6569 14.1569C16.1566 15.6571 14.1217 16.5 12 16.5ZM22 26.5V23.5C22 22.7044 21.6839 21.9413 21.1213 21.3787C20.5587 20.8161 19.7956 20.5 19 20.5H5C4.20435 20.5 3.44129 20.8161 2.87868 21.3787C2.31607 21.9413 2 22.7044 2 23.5V26.5C2 26.7652 1.89464 27.0196 1.70711 27.2071C1.51957 27.3946 1.26522 27.5 1 27.5C0.734784 27.5 0.48043 27.3946 0.292893 27.2071C0.105357 27.0196 0 26.7652 0 26.5V23.5C0 22.1739 0.526784 20.9021 1.46447 19.9645C2.40215 19.0268 3.67392 18.5 5 18.5H19C20.3261 18.5 21.5979 19.0268 22.5355 19.9645C23.4732 20.9021 24 22.1739 24 23.5V26.5C24 26.7652 23.8946 27.0196 23.7071 27.2071C23.5196 27.3946 23.2652 27.5 23 27.5C22.7348 27.5 22.4804 27.3946 22.2929 27.2071C22.1054 27.0196 22 26.7652 22 26.5Z" fill="#E8EAEC"/>
</svg>
